<svg width="64" height="64" viewBox="0 0 64 64" xmlns="http://www.w3.org/2000/svg">
  <defs>
    <linearGradient id="gradient" x1="0%" y1="0%" x2="100%" y2="100%">
      <stop offset="0%" style="stop-color:#2563eb;stop-opacity:1" />
      <stop offset="100%" style="stop-color:#7c3aed;stop-opacity:1" />
    </linearGradient>
  </defs>
  
  <!-- Main background -->
  <rect width="64" height="64" rx="12" fill="url(#gradient)"/>
  
  <!-- "d" letter -->
  <g fill="white">
    <path d="M18 35 L18 45 L22 48 L30 48 Q35 48 37 43 L37 40 Q37 35 32 33 L26 33 L26 35 Z" />
    <rect x="18" y="28" width="4" height="20" rx="1"/>
  </g>
  
  <!-- ISO indicator -->
  <circle cx="42" cy="38" r="2.5" fill="rgba(255,255,255,0.9)"/>
  <text x="42" y="40" font-family="Arial, sans-serif" font-size="4" font-weight="bold" text-anchor="middle" fill="#2563eb">ISO</text>
  
  <!-- Verification checkmark -->
  <path d="M45 25 L48 28 L54 20" stroke="white" stroke-width="2.5" fill="none" stroke-linecap="round"/>
  
  <!-- Blockchain element -->
  <g fill="rgba(255,255,255,0.4)">
    <rect x="12" y="18" width="4" height="4" rx="0.5"/>
    <rect x="12" y="23" width="4" height="4" rx="0.5"/>
    <line x1="16" y1="20" x2="20" y2="20" stroke="rgba(255,255,255,0.4)" stroke-width="1"/>
  </g>
</svg>