<svg width="32" height="32" viewBox="0 0 32 32" xmlns="http://www.w3.org/2000/svg">
  <defs>
    <linearGradient id="faviconGradient" x1="0%" y1="0%" x2="100%" y2="100%">
      <stop offset="0%" style="stop-color:#2563eb;stop-opacity:1" />
      <stop offset="100%" style="stop-color:#7c3aed;stop-opacity:1" />
    </linearGradient>
  </defs>
  
  <!-- Main background -->
  <rect width="32" height="32" rx="6" fill="url(#faviconGradient)"/>
  
  <!-- "d" letter -->
  <g fill="white">
    <path d="M9 17.5 L9 22.5 L11 24 L15 24 Q17.5 24 18.5 21.5 L18.5 20 Q18.5 17.5 16 16.5 L13 16.5 L13 17.5 Z" />
    <rect x="9" y="14" width="2" height="10" rx="0.5"/>
  </g>
  
  <!-- ISO indicator -->
  <circle cx="21" cy="19" r="1.2" fill="rgba(255,255,255,0.9)"/>
  <text x="21" y="20" font-family="Arial, sans-serif" font-size="2" font-weight="bold" text-anchor="middle" fill="#2563eb">ISO</text>
  
  <!-- Verification checkmark -->
  <path d="M22.5 12.5 L24 14 L27 10" stroke="white" stroke-width="1.2" fill="none" stroke-linecap="round"/>
  
  <!-- Blockchain element -->
  <g fill="rgba(255,255,255,0.4)">
    <rect x="6" y="9" width="2" height="2" rx="0.2"/>
    <rect x="6" y="11.5" width="2" height="2" rx="0.2"/>
    <line x1="8" y1="10" x2="10" y2="10" stroke="rgba(255,255,255,0.4)" stroke-width="0.5"/>
  </g>
</svg>